<svg version="1.1" xmlns="http://www.w3.org/2000/svg" xmlns:xlink="http://www.w3.org/1999/xlink" x="0px" y="0px"
     viewBox="0 0 463.6 147.3" style="enable-background:new 0 0 463.6 147.3;" xml:space="preserve">
<style type="text/css">
	.st0{fill:#B4B4B4;}
	.st1{fill:#D8D8D8;}
    .st2{fill:#B4B4B4;}
</style>
    <g id="Android">
</g>
    <g id="iOS">
	<g id="Apple_x5F_button">
		<g id="Apple_Logo">
			<g>
				<path class="st1" d="M102.3,71.6c-0.1-11,9-16.3,9.4-16.6c-5.1-7.5-13.1-8.5-15.9-8.6c-6.7-0.7-13.2,4-16.6,4
					c-3.5,0-8.7-3.9-14.4-3.8c-7.3,0.1-14.1,4.3-17.8,10.9c-7.7,13.4-2,33,5.4,43.8c3.7,5.3,8,11.2,13.7,11
					c5.5-0.2,7.6-3.5,14.3-3.5c6.6,0,8.6,3.5,14.3,3.4c5.9-0.1,9.7-5.3,13.2-10.6c4.3-6.1,6-12,6.1-12.3
					C113.8,89.1,102.4,84.8,102.3,71.6z"/>
                <path class="st1" d="M91.4,39.4c3-3.7,5-8.8,4.4-13.9c-4.3,0.2-9.7,3-12.8,6.6c-2.7,3.2-5.2,8.5-4.6,13.4
					C83.3,45.8,88.3,43,91.4,39.4z"/>
			</g>
		</g>
        <g id="AppStore">
			<path class="st1" d="M178.9,111.5h-7.7l-4.2-13.3h-14.7l-4,13.3h-7.5l14.6-45.3h9L178.9,111.5z M165.6,92.6l-3.8-11.8
				c-0.4-1.2-1.2-4.1-2.3-8.5h-0.1c-0.4,1.9-1.2,4.8-2.2,8.5l-3.8,11.8H165.6z"/>
            <path class="st1" d="M216.4,94.8c0,5.6-1.5,9.9-4.5,13.2c-2.7,2.9-6,4.3-10,4.3c-4.3,0-7.4-1.5-9.3-4.6h-0.1v17.2h-7.3V89.6
				c0-3.5-0.1-7.1-0.3-10.8h6.4l0.4,5.2h0.1c2.4-3.9,6.1-5.8,11-5.8c3.9,0,7.1,1.5,9.6,4.6C215.1,85.8,216.4,89.8,216.4,94.8z
				 M209,95.1c0-3.2-0.7-5.8-2.2-7.9c-1.6-2.2-3.7-3.2-6.3-3.2c-1.8,0-3.4,0.6-4.9,1.8c-1.5,1.2-2.4,2.7-2.9,4.7
				c-0.2,0.9-0.3,1.6-0.3,2.2v5.4c0,2.4,0.7,4.4,2.2,6c1.5,1.6,3.3,2.5,5.7,2.5c2.7,0,4.9-1.1,6.4-3.2
				C208.2,101.3,209,98.5,209,95.1z"/>
            <path class="st1" d="M254,94.8c0,5.6-1.5,9.9-4.5,13.2c-2.7,2.9-6,4.3-10,4.3c-4.3,0-7.4-1.5-9.3-4.6H230v17.2h-7.3V89.6
				c0-3.5-0.1-7.1-0.3-10.8h6.4l0.4,5.2h0.1c2.4-3.9,6.1-5.8,11-5.8c3.8,0,7.1,1.5,9.6,4.6C252.7,85.8,254,89.8,254,94.8z
				 M246.6,95.1c0-3.2-0.7-5.8-2.2-7.9c-1.6-2.2-3.7-3.2-6.3-3.2c-1.8,0-3.4,0.6-4.9,1.8c-1.5,1.2-2.4,2.7-2.9,4.7
				c-0.2,0.9-0.3,1.6-0.3,2.2v5.4c0,2.4,0.7,4.4,2.2,6c1.5,1.6,3.4,2.5,5.7,2.5c2.7,0,4.9-1.1,6.4-3.2
				C245.8,101.3,246.6,98.5,246.6,95.1z"/>
            <path class="st1" d="M296,98.8c0,3.9-1.3,7-4,9.4c-3,2.6-7.1,4-12.3,4c-4.9,0-8.8-0.9-11.7-2.8l1.7-6.1c3.2,1.9,6.7,2.9,10.5,2.9
				c2.7,0,4.9-0.6,6.4-1.9c1.5-1.2,2.3-2.9,2.3-5c0-1.8-0.6-3.4-1.9-4.6c-1.3-1.3-3.3-2.4-6.3-3.5c-7.9-3-11.9-7.3-11.9-13
				c0-3.7,1.4-6.8,4.2-9.2c2.8-2.4,6.5-3.6,11.1-3.6c4.1,0,7.5,0.7,10.3,2.2l-1.8,5.9c-2.6-1.4-5.4-2.1-8.7-2.1
				c-2.6,0-4.5,0.6-6,1.9c-1.2,1.1-1.8,2.5-1.8,4.1c0,1.8,0.7,3.3,2.1,4.4c1.2,1.1,3.4,2.2,6.6,3.5c3.9,1.6,6.8,3.4,8.6,5.5
				C295.1,93.1,296,95.7,296,98.8z"/>
            <path class="st1" d="M320,84.3h-8v15.9c0,4,1.4,6.1,4.2,6.1c1.3,0,2.4-0.1,3.2-0.3l0.2,5.5c-1.4,0.5-3.3,0.8-5.6,0.8
				c-2.9,0-5.1-0.9-6.7-2.6c-1.6-1.7-2.4-4.7-2.4-8.8V84.3h-4.8v-5.4h4.8v-6l7.1-2.2v8.1h8V84.3z"/>
            <path class="st1" d="M356.1,94.9c0,5-1.4,9.1-4.3,12.4c-3,3.3-7,5-12,5c-4.8,0-8.6-1.6-11.5-4.8c-2.8-3.2-4.3-7.2-4.3-12
				c0-5.1,1.5-9.2,4.4-12.4c2.9-3.2,6.9-4.8,11.9-4.8c4.8,0,8.7,1.6,11.6,4.8C354.7,86.1,356.1,90,356.1,94.9z M348.5,95.2
				c0-3-0.6-5.6-1.9-7.8c-1.5-2.6-3.7-3.9-6.5-3.9c-2.9,0-5.1,1.3-6.7,3.9c-1.3,2.2-1.9,4.8-1.9,7.9c0,3,0.6,5.6,1.9,7.7
				c1.6,2.6,3.8,3.9,6.6,3.9c2.8,0,4.9-1.3,6.5-4C347.9,100.8,348.5,98.2,348.5,95.2z"/>
            <path class="st1" d="M379.7,85.2c-0.7-0.1-1.5-0.2-2.3-0.2c-2.6,0-4.5,1-5.9,2.9c-1.2,1.7-1.8,3.9-1.8,6.4v17.1h-7.3l0.1-22.4
				c0-3.8-0.1-7.2-0.3-10.3h6.3l0.3,6.3h0.2c0.8-2.1,2-3.9,3.6-5.2c1.6-1.2,3.4-1.7,5.2-1.7c0.7,0,1.3,0,1.8,0.1V85.2z"/>
            <path class="st1" d="M412.1,93.7c0,1.3-0.1,2.4-0.3,3.3h-21.8c0.1,3.2,1.1,5.7,3.2,7.4c1.8,1.5,4.2,2.3,7.1,2.3
				c3.2,0,6.2-0.5,8.8-1.5l1.1,5c-3.1,1.3-6.7,2-11,2c-5.1,0-9-1.5-11.9-4.5c-2.9-3-4.3-7-4.3-12c0-4.9,1.3-9,4-12.3
				c2.8-3.5,6.6-5.2,11.4-5.2c4.7,0,8.3,1.7,10.7,5.2C411.2,86.1,412.1,89.6,412.1,93.7z M405.2,91.8c0-2.2-0.4-4-1.4-5.6
				c-1.3-2-3.2-3-5.8-3c-2.4,0-4.3,1-5.8,3c-1.2,1.6-1.9,3.5-2.1,5.6H405.2z"/>
		</g>
        <g id="Download_on_the">
			<path class="st0" d="M163.2,38.4c0,4-1.2,7-3.6,9c-2.2,1.9-5.4,2.8-9.5,2.8c-2,0-3.8-0.1-5.2-0.3V28.1c1.9-0.3,3.9-0.5,6.1-0.5
				c3.9,0,6.8,0.8,8.8,2.5C162.1,32,163.2,34.8,163.2,38.4z M159.5,38.5c0-2.6-0.7-4.6-2.1-6c-1.4-1.4-3.4-2.1-6-2.1
				c-1.1,0-2.1,0.1-2.9,0.2v16.6c0.4,0.1,1.2,0.1,2.4,0.1c2.7,0,4.8-0.8,6.3-2.3C158.7,43.6,159.5,41.4,159.5,38.5z"/>
            <path class="st0" d="M183.2,41.9c0,2.5-0.7,4.5-2.1,6.1c-1.5,1.6-3.4,2.4-5.9,2.4c-2.4,0-4.2-0.8-5.6-2.3
				c-1.4-1.6-2.1-3.5-2.1-5.9c0-2.5,0.7-4.5,2.2-6.1c1.4-1.6,3.4-2.4,5.8-2.4c2.4,0,4.2,0.8,5.7,2.3
				C182.5,37.5,183.2,39.5,183.2,41.9z M179.5,42c0-1.5-0.3-2.7-1-3.8c-0.7-1.3-1.8-1.9-3.2-1.9c-1.4,0-2.5,0.6-3.3,1.9
				c-0.6,1.1-1,2.4-1,3.9c0,1.5,0.3,2.7,1,3.8c0.8,1.3,1.8,1.9,3.2,1.9c1.4,0,2.4-0.7,3.2-2C179.2,44.7,179.5,43.5,179.5,42z"/>
            <path class="st0" d="M209.9,34l-5,16h-3.3l-2.1-7c-0.5-1.7-1-3.5-1.3-5.2h-0.1c-0.3,1.8-0.7,3.5-1.3,5.2l-2.2,7h-3.3l-4.7-16h3.7
				l1.8,7.6c0.4,1.8,0.8,3.5,1.1,5.2h0.1c0.3-1.3,0.7-3,1.3-5.1l2.3-7.7h2.9l2.2,7.5c0.5,1.8,1,3.6,1.3,5.3h0.1
				c0.2-1.7,0.6-3.4,1.1-5.3l1.9-7.5H209.9z"/>
            <path class="st0" d="M228.4,50h-3.6v-9.2c0-2.8-1.1-4.2-3.2-4.2c-1.1,0-1.9,0.4-2.6,1.2c-0.7,0.8-1,1.7-1,2.8V50h-3.6V38.6
				c0-1.4,0-2.9-0.1-4.6h3.1l0.2,2.5h0.1c0.4-0.8,1-1.4,1.8-1.9c1-0.6,2-0.9,3.2-0.9c1.5,0,2.7,0.5,3.7,1.5c1.2,1.2,1.8,3,1.8,5.3
				V50z"/>
            <path class="st0" d="M238.3,50h-3.6V26.6h3.6V50z"/>
            <path class="st0" d="M259.3,41.9c0,2.5-0.7,4.5-2.1,6.1c-1.5,1.6-3.4,2.4-5.9,2.4c-2.4,0-4.2-0.8-5.6-2.3
				c-1.4-1.6-2.1-3.5-2.1-5.9c0-2.5,0.7-4.5,2.2-6.1c1.4-1.6,3.4-2.4,5.8-2.4c2.4,0,4.2,0.8,5.7,2.3
				C258.6,37.5,259.3,39.5,259.3,41.9z M255.6,42c0-1.5-0.3-2.7-1-3.8c-0.7-1.3-1.8-1.9-3.2-1.9c-1.4,0-2.5,0.6-3.3,1.9
				c-0.6,1.1-1,2.4-1,3.9c0,1.5,0.3,2.7,1,3.8c0.8,1.3,1.8,1.9,3.2,1.9c1.4,0,2.4-0.7,3.2-2C255.2,44.7,255.6,43.5,255.6,42z"/>
            <path class="st0" d="M276.5,50h-3.2l-0.3-1.8H273c-1.1,1.5-2.7,2.2-4.7,2.2c-1.5,0-2.7-0.5-3.7-1.5c-0.8-0.9-1.3-2-1.3-3.3
				c0-2,0.8-3.5,2.5-4.5c1.6-1,3.9-1.5,6.9-1.5v-0.3c0-2.1-1.1-3.2-3.3-3.2c-1.6,0-3,0.4-4.2,1.2l-0.7-2.3c1.5-0.9,3.3-1.4,5.5-1.4
				c4.2,0,6.3,2.2,6.3,6.6v5.9C276.3,47.8,276.4,49.1,276.5,50z M272.8,44.5V42c-3.9-0.1-5.9,1-5.9,3.2c0,0.8,0.2,1.5,0.7,1.9
				c0.5,0.4,1,0.6,1.7,0.6c0.8,0,1.5-0.2,2.2-0.7c0.7-0.5,1.1-1.1,1.2-1.9C272.8,44.9,272.8,44.7,272.8,44.5z"/>
            <path class="st0" d="M296.8,50h-3.2l-0.2-2.6h-0.1c-1,2-2.7,2.9-5.2,2.9c-1.9,0-3.5-0.8-4.8-2.3c-1.3-1.5-1.9-3.5-1.9-5.9
				c0-2.6,0.7-4.7,2.1-6.3c1.3-1.5,3-2.2,5-2.2c2.2,0,3.7,0.7,4.5,2.2h0.1v-9.2h3.6v19.1C296.7,47.2,296.7,48.7,296.8,50z
				 M293.1,43.2v-2.7c0-0.5,0-0.8-0.1-1.1c-0.2-0.9-0.6-1.6-1.3-2.2c-0.7-0.6-1.5-0.9-2.4-0.9c-1.3,0-2.4,0.5-3.1,1.6
				c-0.8,1.1-1.1,2.4-1.1,4.1c0,1.6,0.4,2.9,1.1,3.9c0.8,1.1,1.8,1.6,3.1,1.6c1.2,0,2.1-0.4,2.8-1.3
				C292.8,45.4,293.1,44.4,293.1,43.2z"/>
            <path class="st0" d="M327.3,41.9c0,2.5-0.7,4.5-2.1,6.1c-1.5,1.6-3.4,2.4-5.9,2.4c-2.4,0-4.2-0.8-5.6-2.3
				c-1.4-1.6-2.1-3.5-2.1-5.9c0-2.5,0.7-4.5,2.2-6.1c1.4-1.6,3.4-2.4,5.8-2.4c2.4,0,4.2,0.8,5.7,2.3
				C326.6,37.5,327.3,39.5,327.3,41.9z M323.6,42c0-1.5-0.3-2.7-1-3.8c-0.8-1.3-1.8-1.9-3.2-1.9c-1.4,0-2.5,0.6-3.3,1.9
				c-0.6,1.1-1,2.4-1,3.9c0,1.5,0.3,2.7,1,3.8c0.8,1.3,1.8,1.9,3.2,1.9c1.4,0,2.4-0.7,3.2-2C323.3,44.7,323.6,43.5,323.6,42z"/>
            <path class="st0" d="M346.5,50h-3.6v-9.2c0-2.8-1.1-4.2-3.2-4.2c-1.1,0-1.9,0.4-2.6,1.2c-0.7,0.8-1,1.7-1,2.8V50h-3.6V38.6
				c0-1.4,0-2.9-0.1-4.6h3.1l0.2,2.5h0.1c0.4-0.8,1-1.4,1.8-1.9c1-0.6,2-0.9,3.2-0.9c1.5,0,2.7,0.5,3.7,1.5c1.2,1.2,1.8,3,1.8,5.3
				V50z"/>
            <path class="st0" d="M370.5,36.6h-3.9v7.8c0,2,0.7,3,2.1,3c0.6,0,1.2-0.1,1.6-0.2l0.1,2.7c-0.7,0.3-1.6,0.4-2.8,0.4
				c-1.4,0-2.5-0.4-3.3-1.3c-0.8-0.9-1.2-2.3-1.2-4.3v-8.1h-2.3V34h2.3V31l3.5-1.1v4h3.9V36.6z"/>
            <path class="st0" d="M389.4,50h-3.6v-9.1c0-2.9-1.1-4.3-3.2-4.3c-1.7,0-2.8,0.8-3.4,2.5c-0.1,0.4-0.2,0.8-0.2,1.3V50h-3.6V26.6
				h3.6v9.7h0.1c1.1-1.8,2.7-2.6,4.8-2.6c1.5,0,2.7,0.5,3.7,1.5c1.2,1.2,1.8,3,1.8,5.4V50z"/>
            <path class="st0" d="M408.9,41.2c0,0.6,0,1.2-0.1,1.6h-10.7c0,1.6,0.6,2.8,1.5,3.6c0.9,0.7,2.1,1.1,3.5,1.1c1.6,0,3-0.3,4.3-0.8
				l0.6,2.5c-1.5,0.7-3.3,1-5.4,1c-2.5,0-4.4-0.7-5.9-2.2c-1.4-1.5-2.1-3.4-2.1-5.9c0-2.4,0.7-4.4,2-6c1.4-1.7,3.3-2.6,5.6-2.6
				c2.3,0,4.1,0.9,5.2,2.6C408.4,37.5,408.9,39.2,408.9,41.2z M405.5,40.3c0-1.1-0.2-2-0.7-2.7c-0.6-1-1.6-1.5-2.8-1.5
				c-1.2,0-2.1,0.5-2.8,1.5c-0.6,0.8-0.9,1.7-1.1,2.8H405.5z"/>
		</g>
        <path class="st2" d="M440.1,9.7c7.7,0,14,6.3,14,14.1v100.5c0,7.8-6.3,14.1-14,14.1H23.5c-7.7,0-14-6.3-14-14.1V23.8
			c0-7.8,6.3-14.1,14-14.1H440.1 M440.1,7H23.5C14.3,7,6.8,14.6,6.8,23.8v100.5c0,9.2,7.5,16.7,16.7,16.7h416.7
			c9.2,0,16.7-7.5,16.7-16.7V23.8C456.8,14.6,449.3,7,440.1,7L440.1,7z"/>
	</g>
</g>
</svg>
