<svg version="1.1" xmlns="http://www.w3.org/2000/svg" xmlns:xlink="http://www.w3.org/1999/xlink" x="0px" y="0px"
     viewBox="0 0 463.3 147.3" xml:space="preserve">
<style type="text/css">
	.st0{fill:#B4B4B4;}
	.st1{fill:#D8D8D8;}
    .st2{fill:#B4B4B4;}
</style>
    <g id="Android">
	<g id="Google_Button">
		<path class="st2" d="M440,10.4c7.7,0,14,6.3,14,14.1V125c0,7.8-6.3,14.1-14,14.1H23.3c-7.7,0-14-6.3-14-14.1V24.5c0-7.8,6.3-14.1,14-14.1H440
			L440,10.4z M440,7.8H23.3c-9.2,0-16.7,7.5-16.7,16.7V125c0,9.2,7.5,16.7,16.7,16.7H440c9.2,0,16.7-7.5,16.7-16.7V24.5
			C456.7,15.3,449.2,7.8,440,7.8L440,7.8z"/>
        <g id="Get_It_On">
			<path class="st0" d="M164.7,42.1c0,2.8-0.8,5-2.5,6.7c-1.9,2-4.3,3-7.3,3c-2.9,0-5.3-1-7.4-3c-2-2-3-4.5-3-7.5c0-3,1-5.5,3-7.5
				c2-2,4.5-3,7.4-3c1.4,0,2.8,0.3,4.1,0.8c1.3,0.6,2.3,1.3,3.1,2.2l-1.8,1.8c-1.3-1.6-3.1-2.4-5.5-2.4c-2.1,0-3.9,0.7-5.5,2.2
				c-1.5,1.5-2.3,3.4-2.3,5.8s0.8,4.3,2.3,5.8c1.5,1.5,3.4,2.2,5.5,2.2c2.2,0,4.1-0.7,5.6-2.2c1-1,1.5-2.3,1.7-4.1h-7.3v-2.4h9.7
				C164.7,41.1,164.7,41.6,164.7,42.1z"/>
            <path class="st0" d="M180.1,33.7H171V40h8.2v2.4H171v6.4h9.1v2.5h-11.7V31.2h11.7V33.7z"/>
            <path class="st0" d="M190.9,51.3h-2.6V33.7h-5.6v-2.5h13.7v2.5h-5.6V51.3z"/>
            <path class="st0" d="M206.5,51.3V31.2h2.6v20.1H206.5z"/>
            <path class="st0" d="M220.4,51.3h-2.6V33.7h-5.6v-2.5H226v2.5h-5.6V51.3z"/>
            <path class="st0" d="M252,48.7c-2,2-4.4,3-7.3,3c-2.9,0-5.4-1-7.3-3c-2-2-2.9-4.5-2.9-7.5s1-5.4,2.9-7.5c2-2,4.4-3,7.3-3
				c2.9,0,5.3,1,7.3,3.1c2,2,3,4.5,3,7.4C255,44.2,254,46.7,252,48.7z M239.3,47c1.5,1.5,3.3,2.3,5.4,2.3s4-0.8,5.4-2.3
				c1.5-1.5,2.2-3.4,2.2-5.8s-0.7-4.3-2.2-5.8c-1.5-1.5-3.3-2.3-5.4-2.3s-4,0.8-5.4,2.3c-1.5,1.5-2.2,3.4-2.2,5.8
				S237.8,45.5,239.3,47z"/>
            <path class="st0" d="M258.6,51.3V31.2h3.1l9.7,15.6h0.1l-0.1-3.9V31.2h2.6v20.1h-2.7l-10.2-16.4H261l0.1,3.9v12.5H258.6z"/>
		</g>
        <path id="Google_Play" class="st1" d="M233.8,80.6c-7.8,0-14.2,6-14.2,14.2c0,8.2,6.4,14.2,14.2,14.2c7.8,0,14.2-6,14.2-14.2
			C248,86.6,241.6,80.6,233.8,80.6z M233.8,103.5c-4.3,0-8-3.6-8-8.6c0-5.1,3.7-8.6,8-8.6c4.3,0,8,3.5,8,8.6
			C241.8,99.9,238.1,103.5,233.8,103.5z M202.7,80.6c-7.8,0-14.2,6-14.2,14.2c0,8.2,6.4,14.2,14.2,14.2c7.8,0,14.2-6,14.2-14.2
			C217,86.6,210.6,80.6,202.7,80.6z M202.7,103.5c-4.3,0-8-3.6-8-8.6c0-5.1,3.7-8.6,8-8.6c4.3,0,8,3.5,8,8.6
			C210.7,99.9,207,103.5,202.7,103.5z M165.8,85v6h14.4c-0.4,3.4-1.6,5.9-3.3,7.6c-2.1,2.1-5.4,4.4-11.1,4.4
			c-8.9,0-15.8-7.2-15.8-16.1s6.9-16.1,15.8-16.1c4.8,0,8.3,1.9,10.8,4.3l4.2-4.3c-3.6-3.5-8.4-6.1-15.1-6.1
			c-12.1,0-22.3,9.9-22.3,22.1c0,12.2,10.2,22.1,22.3,22.1c6.6,0,11.5-2.2,15.4-6.2c4-4,5.2-9.6,5.2-14.1c0-1.4-0.1-2.7-0.3-3.8
			H165.8z M316.8,89.7c-1.2-3.2-4.8-9.1-12.1-9.1c-7.3,0-13.4,5.8-13.4,14.2c0,8,6,14.2,14.1,14.2c6.5,0,10.3-4,11.8-6.3l-4.8-3.2
			c-1.6,2.4-3.8,3.9-7,3.9c-3.2,0-5.4-1.5-6.9-4.3l19-7.9L316.8,89.7z M297.5,94.4c-0.2-5.5,4.2-8.3,7.4-8.3c2.5,0,4.6,1.2,5.3,3
			L297.5,94.4z M282.1,108.3h6.2V66.4h-6.2V108.3z M271.9,83.8h-0.2c-1.4-1.7-4.1-3.2-7.5-3.2c-7.1,0-13.6,6.3-13.6,14.3
			c0,8,6.5,14.2,13.6,14.2c3.4,0,6.1-1.5,7.5-3.2h0.2v2.1c0,5.5-2.9,8.4-7.6,8.4c-3.8,0-6.2-2.8-7.1-5.1l-5.4,2.3
			c1.6,3.8,5.7,8.4,12.6,8.4c7.3,0,13.5-4.3,13.5-14.8V81.5h-5.9V83.8z M264.7,103.5c-4.3,0-7.9-3.6-7.9-8.6c0-5,3.6-8.7,7.9-8.7
			c4.2,0,7.6,3.7,7.6,8.7C272.3,99.9,269,103.5,264.7,103.5z M346,66.4h-14.9v41.9h6.2V92.4h8.7c6.9,0,13.7-5,13.7-13
			S352.9,66.4,346,66.4z M346.2,86.6h-8.8V72.2h8.8c4.7,0,7.3,3.9,7.3,7.2C353.5,82.6,350.8,86.6,346.2,86.6z M384.6,80.5
			c-4.5,0-9.2,2-11.1,6.4l5.5,2.3c1.2-2.3,3.4-3.1,5.7-3.1c3.2,0,6.5,1.9,6.5,5.4V92c-1.1-0.6-3.5-1.6-6.5-1.6c-6,0-12,3.3-12,9.4
			c0,5.6,4.9,9.2,10.3,9.2c4.2,0,6.5-1.9,7.9-4.1h0.2v3.2h6V92.1C397.3,84.7,391.7,80.5,384.6,80.5z M383.9,103.5
			c-2,0-4.9-1-4.9-3.6c0-3.2,3.5-4.5,6.6-4.5c2.7,0,4,0.6,5.7,1.4C390.8,100.8,387.5,103.5,383.9,103.5z M419.1,81.5L412,99.6h-0.2
			l-7.4-18.2h-6.7l11.1,25.4l-6.3,14.1h6.5l17.1-39.5H419.1z M363.1,108.3h6.2V66.4h-6.2V108.3z"/>
        <path class="st1" d="M82.3,74.8l-41.2,41.4c-0.8-1-1.2-2.5-1.2-4.3V37.7c0-1.8,0.5-3.3,1.2-4.3L82.3,74.8z"/>
        <path class="st1" d="M83,75.5l13.6,13.7l-48.2,27.6c-2.6,1.5-5,1.4-6.6,0.1L83,75.5z"/>
        <path class="st1" d="M83,74L41.8,32.7c1.6-1.3,3.9-1.4,6.6,0.1l48.2,27.5L83,74z"/>
        <path class="st1" d="M113.4,79.6l-15.8,9L83.7,74.8l13.8-13.9l15.9,9.1C118,72.6,118,76.9,113.4,79.6z"/>
	</g>
</g>
    <g id="iOS">
</g>
</svg>
