<?xml version="1.0" encoding="utf-8"?>
<svg version="1.1" id="website-icons_1_" xmlns="http://www.w3.org/2000/svg" xmlns:xlink="http://www.w3.org/1999/xlink" x="0px"
	 y="0px" viewBox="0 0 368.64 368.64" style="enable-background:new 0 0 368.64 368.64;" xml:space="preserve">
<g id="logo-color_xA0_Изображение_1_">
	<path class="st0" d="M318.7,114.37C304,54.19,249.73,9.54,185.02,9.54C119.95,9.54,65.44,54.72,51.1,115.4
		c-2.26,9.6-3.52,19.61-3.65,29.89c0.13,0.09,0.25,0.2,0.37,0.3h65.51c0.08-0.11,0.17-0.22,0.26-0.32
		c0.04-39.42,32-71.37,71.43-71.37c39.46,0,71.44,31.97,71.45,71.42c0.08,0.09,0.15,0.18,0.23,0.27h65.87
		c0.01-0.02,0.03-0.03,0.04-0.05C322.5,134.82,321.14,124.38,318.7,114.37z"/>
	<path class="st0" d="M317.2,185.46h-68.32c-0.26,0.1-0.54,0.19-0.84,0.24c-22.05,24.23-43.12,49.35-63.13,75.36
		c-20.24-26.07-41.54-51.28-63.84-75.55c-0.04-0.02-0.07-0.04-0.11-0.06H53.08c-0.02,0.03-0.04,0.06-0.06,0.09
		c5.6,18.75,15.18,35.66,27.51,49.99l2.27,2.57l3.33,3.75c20.24,21.15,39.7,43.02,58.33,65.62l0.04,0.04
		c1.16,1.4,2.32,2.81,3.48,4.22c12.63,15.46,24.9,31.24,36.75,47.35c11.94-16.27,24.3-32.24,37.04-47.88
		c18.76-23,38.34-45.29,58.73-66.8c2.3-2.43,4.62-4.86,6.94-7.27l0.02-0.02c12.88-14.39,22.67-30.82,28.47-47.44
		c0.5-1.4,0.94-2.78,1.35-4.15C317.25,185.52,317.23,185.49,317.2,185.46z"/>
</g>
</svg>
