<?xml version="1.0" encoding="utf-8"?>
<svg version="1.1" id="Слой_1" xmlns="http://www.w3.org/2000/svg" x="0px" y="0px"
	 viewBox="0 0 400 120" style="enable-background:new 0 0 400 120;" xml:space="preserve">
<g>
	<g>
		<path d="M12.52,103.73V91.1l33.96-38.13l1.07,3.81H12.99V43.32h51.59v12.15L30.15,94.2l-0.71-3.93h36.34v13.46H12.52z"/>
		<path d="M71.98,103.73v-87.7h17.99v39.56L87.94,55c2.06-4.29,4.94-7.57,8.64-9.83c3.69-2.26,7.96-3.4,12.81-3.4
			c14.22,0,21.33,8.46,21.33,25.38v36.58h-17.99V67.98c0-4.29-0.77-7.39-2.32-9.29c-1.55-1.91-3.99-2.86-7.33-2.86
			c-3.97,0-7.15,1.27-9.53,3.81c-2.38,2.54-3.57,5.96-3.57,10.25v33.84H71.98z"/>
		<path d="M168.61,105.64c-5.6,0-10.69-1.4-15.28-4.2c-4.59-2.8-8.22-6.65-10.9-11.56c-2.68-4.91-4.02-10.48-4.02-16.71
			c0-6.16,1.3-11.67,3.9-16.53c2.6-4.86,6.18-8.72,10.72-11.56c4.55-2.84,9.74-4.26,15.58-4.26c4.33,0,8.37,0.82,12.12,2.47
			c3.75,1.65,6.82,3.94,9.21,6.88v-7.45h18.29v61.01h-18.29v-8.04c-2.78,3.18-5.98,5.63-9.59,7.36
			C176.73,104.77,172.82,105.64,168.61,105.64z M174.03,90.09c3.18,0,5.99-0.72,8.43-2.17c2.44-1.45,4.37-3.43,5.78-5.96
			c1.41-2.52,2.12-5.43,2.12-8.73c0-3.26-0.71-6.16-2.12-8.7c-1.41-2.54-3.34-4.54-5.78-5.99c-2.44-1.45-5.25-2.17-8.43-2.17
			c-3.14,0-5.94,0.73-8.4,2.17c-2.46,1.45-4.41,3.45-5.84,5.99c-1.43,2.54-2.15,5.44-2.15,8.7c0,3.22,0.72,6.1,2.15,8.64
			c1.43,2.54,3.38,4.55,5.84,6.02C168.09,89.35,170.89,90.09,174.03,90.09z"/>
		<path d="M227.35,30.03c-1.99,0-3.8-0.49-5.45-1.46c-1.65-0.97-2.96-2.29-3.93-3.96c-0.97-1.67-1.46-3.49-1.46-5.48
			c0-1.99,0.5-3.79,1.49-5.42c0.99-1.63,2.3-2.93,3.93-3.9c1.63-0.97,3.43-1.46,5.42-1.46c1.99,0,3.79,0.49,5.42,1.46
			c1.63,0.97,2.94,2.27,3.93,3.9c0.99,1.63,1.49,3.44,1.49,5.42c0,1.99-0.5,3.81-1.49,5.48c-0.99,1.67-2.3,2.99-3.93,3.96
			C231.15,29.55,229.34,30.03,227.35,30.03z M218.24,103.73V42.72h18.29v61.01H218.24z"/>
		<path d="M253.63,105.64c-1.83,0-3.5-0.44-5-1.31s-2.7-2.06-3.57-3.57c-0.87-1.51-1.31-3.16-1.31-4.95s0.44-3.43,1.31-4.95
			c0.87-1.51,2.08-2.7,3.6-3.57c1.53-0.87,3.19-1.31,4.97-1.31c1.83,0,3.49,0.44,4.97,1.31c1.49,0.87,2.66,2.07,3.52,3.57
			c0.85,1.51,1.28,3.16,1.28,4.95s-0.43,3.44-1.28,4.95c-0.85,1.51-2.03,2.7-3.52,3.57S255.45,105.64,253.63,105.64z"/>
		<path d="M270.49,103.73v-87.7h17.99v87.7H270.49z M312.19,103.73l-26.81-30.74l25.74-29.55h21.57l-29.67,33.48l0.83-8.22
			l30.38,35.03H312.19z"/>
		<path d="M340.17,103.73V91.14l33.85-38.01l1.07,3.8h-34.45V43.5h51.44v12.12l-34.33,38.61l-0.71-3.92h36.23v13.42H340.17z"/>
	</g>
</g>
</svg>
