<svg xmlns="http://www.w3.org/2000/svg" xmlns:xlink="http://www.w3.org/1999/xlink" version="1.1" id="Capa_1" x="0px"
     y="0px" viewBox="0 0 512 512" style="enable-background:new 0 0 512 512;" xml:space="preserve" width="48"
     height="48">
<g>
	<g>
		<path d="M479.006,201.863l-42.417-1.159l9.983-27.427c8.502-23.37-3.523-49.169-26.897-57.676L109.585,2.738    C98.291-1.373,86.073-0.84,75.178,4.24C64.284,9.32,56.021,18.337,51.911,29.632L21.13,114.201    c-6.829,18.762-0.354,38.615,13.674,50.146L28.8,180.842c-8.505,23.37,3.52,49.168,26.895,57.675l112.71,41.023v66.465    c0,8.271-6.729,15-15,15h-46.483c-2.872-14.372-9.854-27.659-20.362-38.411c-14.239-14.566-33.115-22.587-53.151-22.587    c-8.284,0-15,6.716-15,15V497c0,8.284,6.716,15,15,15c20.036,0,38.913-8.022,53.151-22.587    c10.509-10.751,17.49-24.039,20.362-38.411h46.483c57.895,0,104.997-47.102,104.997-104.997v-33.709l51.002,18.563    c23.315,8.487,49.188-3.579,57.676-26.894l3.143-8.634l58.008,46.034c7.982,6.335,19.904,3.036,23.419-6.619l41.041-112.76    C496.187,212.378,489.236,202.143,479.006,201.863z M78.406,436.002c0,19.589-12.719,36.79-29.999,43.264V332.739    c17.28,6.474,29.999,23.674,29.999,43.264V436.002z M228.401,346.005c0,41.354-33.644,74.998-74.998,74.998h-44.999v-29.999    h44.999c24.812,0,44.999-20.186,44.999-44.999v-55.546l29.999,10.919V346.005z M349.257,265.216    c-0.008,0.022-0.015,0.044-0.024,0.066l-10.345,28.423c-2.83,7.773-11.457,11.793-19.226,8.965L65.953,210.326    c-7.789-2.835-11.801-11.434-8.964-19.224l5.13-14.095l202.889,73.846c7.905,2.877,16.453,3.509,24.809,1.717l66.118-5.703    L349.257,265.216z M286.209,222.77c-2.662,0.229-5.824,1.755-10.941-0.108L58.285,143.686    c-7.787-2.834-11.802-11.435-8.965-19.225l30.781-84.57c1.37-3.765,4.124-6.771,7.756-8.464c3.632-1.693,7.704-1.871,11.47-0.501    l310.089,112.863c7.789,2.835,11.801,11.434,8.964,19.225l-15.029,41.293c-1.609,4.423-5.169,7.8-9.626,9.189L286.209,222.77z     M430.575,304.93l-49.539-39.314l7.859-21.592c8.334-0.767,9.123-0.666,11.011-1.125c8.477-2.065,15.997-6.492,21.837-12.591    l35.639,0.973L430.575,304.93z"
              fill="#000000"></path>
	</g>
</g>
    <g>
	<g>
		<path d="M173.634,89.898l-56.38-20.52c-7.78-2.832-16.392,1.18-19.225,8.965c-2.833,7.785,1.181,16.392,8.966,19.225l56.38,20.52    c7.799,2.839,16.397-1.197,19.225-8.965C185.433,101.339,181.419,92.731,173.634,89.898z"
              fill="#000000"></path>
	</g>
</g>
</svg>
