<svg xmlns="http://www.w3.org/2000/svg" xmlns:xlink="http://www.w3.org/1999/xlink" version="1.1" id="Capa_1" x="0px"
     y="0px" viewBox="0 0 512 512" style="enable-background:new 0 0 512 512;" xml:space="preserve" width="48"
     height="48">
<g>
	<g>
		<path d="M349.052,332.844H162.947C73.098,332.844,0,405.942,0,495.791v14.988h512v-14.988    C512,405.942,438.902,332.844,349.052,332.844z M241.011,480.803H30.814c7.469-66.293,63.878-117.985,132.133-117.985h78.064    V480.803z M270.988,480.803V362.819h78.064c68.256,0,124.665,51.692,132.134,117.985H270.988z"
              fill="#000000"></path>
	</g>
</g>
    <g>
	<g>
		<path d="M338.792,68.651V1.222H173.207V68.65c-33.905,25.813-53.913,65.886-53.913,108.79    c0.001,75.38,61.327,136.705,136.706,136.705s136.705-61.326,136.705-136.705C392.705,134.539,372.697,94.465,338.792,68.651z     M203.182,31.197h105.636v29.975H203.182V31.197z M256,284.171c-58.851,0-106.73-47.879-106.73-106.73    c0-34.255,16.345-66.197,43.923-86.294h125.612c27.578,20.097,43.924,52.04,43.924,86.294    C362.73,236.292,314.851,284.171,256,284.171z"
              fill="#000000"></path>
	</g>
</g>
    <g>
	<g>
		<rect x="174.944" y="406.822" width="29.975" height="29.975" fill="#000000"></rect>
	</g>
</g>
    <g>
	<g>
		<rect x="307.084" y="406.822" width="29.975" height="29.975" fill="#000000"></rect>
	</g>
</g>
</svg>
