<svg xmlns="http://www.w3.org/2000/svg" id="Capa_1" enable-background="new 0 0 512 512" height="48"
     viewBox="0 0 512 512" width="48">
    <path d="m465.55 78h-50.027v-43c0-19.299-15.701-35-35-35h-345.523c-19.299 0-35 15.701-35 35v115.992c0 19.299 15.701 35 35 35h345.522c19.299 0 35-15.701 35-35v-42.992h50.027c9.07 0 16.45 7.379 16.45 16.45v102c0 9.07-7.38 16.45-16.45 16.45h-225.839c-25.612 0-46.45 20.837-46.45 46.45v21.349h-24.669c-19.299 0-35 15.701-35 35v131.301c0 19.299 15.701 35 35 35h79.333c19.299 0 35-15.701 35-35v-131.301c0-19.299-15.701-35-35-35h-24.664v-21.349c0-9.071 7.38-16.45 16.45-16.45h225.84c25.612 0 46.45-20.837 46.45-46.45v-102c0-25.613-20.838-46.45-46.45-46.45zm-430.55-48h345.522c2.757 0 5 2.243 5 5v33.694c-17.512 1.716-28.456 6.315-38.344 10.476-26.528 11.164-52.706 12.923-83.413 0-33.791-14.22-68.408-16.109-106.685 0-26.529 11.165-52.704 12.922-83.408 0-10.854-4.568-22.976-9.667-43.672-10.896v-33.274c0-2.757 2.243-5 5-5zm345.522 125.992h-345.522c-2.757 0-5-2.243-5-5v-52.656c14.405 1.071 22.695 4.555 32.036 8.486 33.716 14.19 68.329 16.141 106.682 0 26.53-11.165 52.707-12.922 83.411 0 33.762 14.208 68.371 16.125 106.687 0 8.126-3.42 15.455-6.502 26.707-7.951v52.122c-.001 2.756-2.244 4.999-5.001 4.999zm-127.598 189.707v131.301c0 2.757-2.243 5-5 5h-79.333c-2.757 0-5-2.243-5-5v-131.301c0-2.757 2.243-5 5-5h79.333c2.757 0 5 2.243 5 5z"
          fill="#000000"></path>
</svg>
