<svg xmlns="http://www.w3.org/2000/svg" height="48" viewBox="-24 0 512 512" width="48">
    <path d="m407.363281 0h-350.011719c-31.625 0-57.351562 25.726562-57.351562 57.351562v397.296876c0 31.625 25.726562 57.351562 57.351562 57.351562h350.011719c31.621094 0 57.351563-25.726562 57.351563-57.351562v-397.296876c0-31.625-25.730469-57.351562-57.351563-57.351562zm26.996094 387.035156h-404.003906v-260.902344h404.003906zm-404.003906-329.683594c0-14.886718 12.109375-26.996093 26.996093-26.996093h350.011719c14.882813 0 26.996094 12.109375 26.996094 26.996093v38.429688h-404.003906zm377.007812 424.292969h-350.011719c-14.886718 0-26.996093-12.109375-26.996093-26.996093v-37.257813h404.003906v37.257813c0 14.886718-12.113281 26.996093-26.996094 26.996093zm0 0"
          fill="#000000"></path>
    <path d="m152.441406 178.71875h159.832032c8.382812 0 15.179687-6.796875 15.179687-15.175781 0-8.382813-6.796875-15.179688-15.179687-15.179688h-159.832032c-8.382812 0-15.179687 6.796875-15.179687 15.179688 0 8.378906 6.796875 15.175781 15.179687 15.175781zm0 0"
          fill="#000000"></path>
    <path d="m91.519531 46.589844c-7.9375 0-15.546875 6.980468-15.179687 15.175781.371094 8.222656 6.671875 15.179687 15.179687 15.179687 7.9375 0 15.546875-6.984374 15.179688-15.179687-.371094-8.222656-6.671875-15.175781-15.179688-15.175781zm0 0"
          fill="#000000"></path>
    <path d="m161.9375 46.589844c-7.9375 0-15.546875 6.980468-15.175781 15.175781.367187 8.222656 6.667969 15.179687 15.175781 15.179687 7.9375 0 15.546875-6.984374 15.179688-15.179687-.371094-8.222656-6.671876-15.175781-15.179688-15.175781zm0 0"
          fill="#000000"></path>
    <path d="m232.355469 46.589844c-7.9375 0-15.542969 6.980468-15.175781 15.175781.367187 8.222656 6.667968 15.179687 15.175781 15.179687 7.941406 0 15.546875-6.984374 15.179687-15.179687-.367187-8.222656-6.667968-15.175781-15.179687-15.175781zm0 0"
          fill="#000000"></path>
    <path d="m302.777344 46.589844c-7.941406 0-15.546875 6.980468-15.179688 15.175781.367188 8.222656 6.667969 15.179687 15.179688 15.179687 7.9375 0 15.542968-6.984374 15.175781-15.179687-.367187-8.222656-6.667969-15.175781-15.175781-15.175781zm0 0"
          fill="#000000"></path>
    <path d="m373.195312 46.589844c-7.9375 0-15.546874 6.980468-15.179687 15.175781.371094 8.222656 6.671875 15.179687 15.179687 15.179687 7.9375 0 15.546876-6.984374 15.179688-15.179687-.371094-8.222656-6.671875-15.175781-15.179688-15.175781zm0 0"
          fill="#000000"></path>
</svg>
