<svg xmlns="http://www.w3.org/2000/svg" id="Layer_1" enable-background="new 0 0 512.293 512.293" height="48"
     viewBox="0 0 512.293 512.293" width="48">
    <g>
        <path d="m273.369 78.81 25.013 13.68 13.68 25.013c2.631 4.811 7.677 7.802 13.16 7.802s10.529-2.992 13.16-7.802l13.68-25.013 25.013-13.68c4.811-2.631 7.802-7.677 7.802-13.16s-2.992-10.529-7.802-13.16l-25.013-13.68-13.68-25.013c-2.631-4.811-7.677-7.802-13.16-7.802s-10.529 2.992-13.16 7.802l-13.68 25.013-25.013 13.68c-4.811 2.631-7.802 7.677-7.802 13.16s2.992 10.529 7.802 13.16zm43.263-15.788c2.517-1.376 4.586-3.446 5.962-5.962l2.628-4.805 2.628 4.805c1.376 2.517 3.446 4.586 5.962 5.962l4.805 2.628-4.805 2.628c-2.517 1.376-4.586 3.446-5.962 5.962l-2.628 4.805-2.628-4.805c-1.376-2.517-3.446-4.586-5.962-5.962l-4.805-2.628z"></path>
        <circle cx="248.497" cy="130.473" r="15"></circle>
        <path d="m392.784 306.031c-5.858 5.858-5.858 15.355 0 21.213s15.355 5.858 21.213 0 5.858-15.355 0-21.213-15.355-5.857-21.213 0z"></path>
        <circle cx="398.163" cy="137.031" r="15"></circle>
        <path d="m159.502 92.162c1.661.591 3.357.871 5.024.871 6.169 0 11.949-3.834 14.134-9.979l15.766-44.343c2.775-7.805-1.303-16.383-9.108-19.158-7.808-2.777-16.384 1.302-19.158 9.108l-15.766 44.343c-2.775 7.805 1.303 16.382 9.108 19.158z"></path>
        <path d="m500.956 149.943c-8.032-2.023-16.186 2.846-18.211 10.878l-10.383 41.189c-8.224-4.987-16.134-10.521-23.621-16.528-5.954-4.777-14.015-5.895-21.038-2.915-7.012 2.975-11.804 9.535-12.505 17.122-1.081 11.696-1.931 23.529-2.538 35.33-8.001-4.09-15.949-8.471-23.723-12.756-5.737-3.162-11.668-6.432-17.578-9.563-6.426-3.405-13.996-3.213-20.249.516-6.258 3.731-10.03 10.305-10.09 17.585-.112 13.526-.125 27.254-.037 40.803.053 8.251 6.758 14.903 14.998 14.903h.099c8.284-.053 14.957-6.813 14.903-15.096-.053-8.234-.069-16.534-.047-24.814 1.18.649 2.354 1.297 3.521 1.94 12.312 6.786 25.043 13.804 38.266 19.869 6.312 2.895 13.606 2.448 19.513-1.197 5.888-3.634 9.547-9.93 9.789-16.844.362-10.37.923-20.817 1.674-31.223 8.044 5.592 16.423 10.717 25.045 15.317 4.997 2.665 10.615 3.132 15.817 1.315 5.796-2.023 10.539-6.714 13.354-13.207.323-.745.585-1.514.783-2.301l13.137-52.112c2.024-8.033-2.846-16.186-10.879-18.211z"></path>
        <path d="m466.776 90.594c24.937 0 45.224-20.287 45.224-45.224s-20.287-45.224-45.224-45.224-45.224 20.288-45.224 45.224 20.288 45.224 45.224 45.224zm0-60.448c8.395 0 15.224 6.83 15.224 15.224s-6.83 15.224-15.224 15.224-15.224-6.83-15.224-15.224 6.83-15.224 15.224-15.224z"></path>
        <path d="m279.927 202.671c1.807 0 3.646-.329 5.432-1.023l43.864-17.052c7.721-3.002 11.547-11.694 8.546-19.416-3.002-7.721-11.695-11.547-19.416-8.546l-43.864 17.052c-7.721 3.002-11.547 11.694-8.546 19.416 2.307 5.935 7.977 9.569 13.984 9.569z"></path>
        <path d="m172.505 147.357c-8.964-8.964-20.882-13.901-33.559-13.901s-24.595 4.937-33.559 13.901-13.901 20.882-13.901 33.559 4.937 24.595 13.901 33.559l6.362 6.363c-32.873 80.395-77.659 189.929-110.633 270.632-2.286 5.592-.994 12.009 3.277 16.281 2.869 2.87 6.706 4.395 10.611 4.395 1.909 0 3.834-.365 5.67-1.115 69.097-28.235 202.428-82.707 270.675-110.596l9.352 9.352c8.964 8.964 20.882 13.901 33.559 13.901s24.596-4.937 33.559-13.901c8.964-8.964 13.901-20.882 13.901-33.559s-4.937-24.595-13.901-33.559zm76.432 210.667-133.645-66.57 19.463-47.611zm-82.327 60.972-87.095-40.024 24.394-59.672 138.209 68.844zm-98.458-12.229 60.426 27.769-86.171 35.209zm278.453-18.192c-3.297 3.298-7.682 5.114-12.346 5.114s-9.048-1.816-12.346-5.114l-181.748-181.748c-.088-.091-.178-.179-.268-.268l-13.297-13.297c-3.297-3.298-5.114-7.683-5.114-12.346s1.816-9.048 5.114-12.346c3.404-3.404 7.875-5.105 12.346-5.105s8.942 1.702 12.346 5.105l195.313 195.313c3.297 3.298 5.114 7.682 5.114 12.346.001 4.664-1.816 9.048-5.114 12.346z"></path>
    </g>
</svg>
