<svg xmlns="http://www.w3.org/2000/svg" xmlns:xlink="http://www.w3.org/1999/xlink" version="1.1" id="Capa_1" x="0px"
     y="0px" viewBox="0 0 512 512" style="enable-background:new 0 0 512 512;" xml:space="preserve" width="48"
     height="48">
<g>
	<g>
		<path d="M0,38v90h30v346h452V128h30V38H0z M256.294,443.985c-0.238,0.001-0.476-0.005-0.714-0.007    C247.504,443.753,241,437.129,241,429c0-8.271,6.729-15,15-15s15,6.729,15,15C271,437.172,264.429,443.826,256.294,443.985z     M321,379c0,17.773-7.038,34.369-19.817,46.729c-0.096,0.093-0.197,0.178-0.294,0.271c-1.551-23.419-21.085-42-44.889-42    c-23.636,0-43.06,18.321-44.851,41.505C198.768,413.417,191,396.486,191,377.996c0-20.822,7.281-41.147,20.502-57.233    l29.213-36.601l42.055,89.011l27.265-43.422c6.892,16.93,10.965,34.023,10.965,47.313V379z M382,444h-56.717    C341.901,426.334,351,403.43,351,379v-1.936c0-29.626-13.637-63.645-26.399-85.602l-12.473-21.459l-25.634,40.824l-39.209-82.989    L188.254,301.8C170.678,323.227,161,350.281,161,377.996c0,24.641,9.264,48.049,26.08,66.004H130V198h252V444z M452,444h-40V168    H100v276H60V128h392V444z M482,98H30V68h452V98z"
              fill="#000000"></path>
	</g>
</g>
</svg>
