<svg xmlns="http://www.w3.org/2000/svg" id="Capa_1" enable-background="new 0 0 512 512" height="48"
     viewBox="0 0 512 512" width="48">
    <g>
        <path d="m495.003 294.342c-8.556-60.314-8.511-121.402.134-181.713l3.218-3.218c8.799-8.799 13.645-20.497 13.645-32.941s-4.846-24.143-13.644-32.939c-8.798-8.799-20.497-13.645-32.941-13.645s-24.142 4.846-32.939 13.644l-4.259 4.258c-33.26 4.164-101.507 6.338-130.895 6.339-30.132 0-97.271-2.161-131.033-6.47l-4.127-4.126c-8.798-8.799-20.497-13.645-32.941-13.645s-24.143 4.846-32.939 13.645c-8.799 8.798-13.644 20.497-13.644 32.94s4.845 24.141 13.643 32.939l4.172 4.172c1.93 13.618 3.424 27.374 4.483 41.105-7.911-.641-15.153-1.352-21.284-2.134l-4.127-4.126c-8.798-8.799-20.497-13.645-32.941-13.645s-24.143 4.846-32.94 13.645c-8.799 8.797-13.644 20.495-13.644 32.938s4.845 24.141 13.643 32.939l4.172 4.172c8.467 59.682 8.512 120.125.135 179.807l-4.307 4.307c-18.162 18.163-18.162 47.717.001 65.879 8.798 8.799 20.497 13.644 32.94 13.644s24.141-4.845 32.94-13.644l3.175-3.175c34.049-4.398 101.669-6.604 131.979-6.604 29.56 0 98.301 2.22 131.854 6.473l3.306 3.306c8.798 8.799 20.497 13.644 32.939 13.644 12.443 0 24.141-4.845 32.939-13.643 8.799-8.798 13.645-20.497 13.645-32.941s-4.846-24.142-13.644-32.939l-3.353-3.354c-1.938-13.66-3.41-27.36-4.466-41.082 8.286.668 15.455 1.379 21.271 2.115l3.305 3.304c8.798 8.799 20.497 13.644 32.939 13.644 12.443 0 24.141-4.845 32.94-13.643s13.645-20.497 13.645-32.941-4.846-24.142-13.644-32.94zm-100.505 152.908c-3.131 3.13-7.293 4.854-11.72 4.854s-8.589-1.724-11.72-4.855l-10.371-10.37-4.891-.732c-33.219-4.971-108.376-7.466-141.117-7.466-32.624 0-107.734 2.544-141.276 7.612l-4.879.737-10.22 10.22c-3.13 3.13-7.293 4.854-11.72 4.854s-8.589-1.724-11.719-4.854c-6.462-6.462-6.462-16.977 0-23.44l11.341-11.341.727-4.904c9.753-65.824 9.704-132.576-.146-198.4l-.732-4.891-11.189-11.189c-3.13-3.131-4.854-7.293-4.854-11.72s1.724-8.589 4.855-11.721c3.13-3.13 7.291-4.854 11.718-4.854s8.589 1.724 11.72 4.855l11.189 11.188 4.891.732c33.222 4.972 107.854 7.466 140.3 7.466 32.568-.001 107.248-2.448 140.128-7.32l4.904-.727 11.341-11.341c3.13-3.13 7.292-4.854 11.719-4.854s8.589 1.724 11.721 4.855c3.13 3.13 4.854 7.292 4.854 11.719s-1.724 8.589-4.855 11.719l-10.22 10.219-.737 4.879c-10.045 66.474-10.094 133.887-.146 200.365l.732 4.892 10.371 10.372c3.13 3.13 4.854 7.292 4.854 11.719.001 4.43-1.723 8.592-4.853 11.722zm71.534-143.597.732 4.892 10.371 10.372c3.13 3.13 4.854 7.292 4.854 11.719s-1.724 8.589-4.854 11.72c-3.131 3.13-7.293 4.854-11.72 4.854s-8.589-1.724-11.72-4.855l-10.371-10.37-4.891-.732c-8.054-1.206-18.836-2.32-32.148-3.326-1.094-36.856.963-73.772 6.214-110.402l3.218-3.218c8.799-8.798 13.645-20.497 13.645-32.94 0-12.444-4.846-24.143-13.644-32.94-8.798-8.799-20.497-13.645-32.941-13.645s-24.142 4.846-32.939 13.644l-4.259 4.258c-33.26 4.164-101.506 6.338-130.895 6.339-18.184 0-49.843-.788-79.514-2.359-1.237-17.503-3.156-35.07-5.748-52.392l-.732-4.892-11.188-11.19c-3.13-3.131-4.854-7.293-4.854-11.72s1.724-8.589 4.855-11.721c3.13-3.13 7.292-4.854 11.718-4.854 4.427 0 8.59 1.724 11.72 4.855l11.189 11.188 4.891.732c33.222 4.972 107.854 7.466 140.3 7.466 32.569-.001 107.248-2.448 140.128-7.32l4.904-.727 11.341-11.341c3.13-3.13 7.292-4.854 11.719-4.854s8.589 1.724 11.721 4.855c3.13 3.13 4.854 7.292 4.854 11.719s-1.724 8.589-4.855 11.719l-10.22 10.219-.737 4.879c-10.043 66.477-10.092 133.89-.144 200.368z"></path>
    </g>
</svg>
