<svg xmlns="http://www.w3.org/2000/svg" id="Capa_1" enable-background="new 0 0 512 512" height="48"
     viewBox="0 0 512 512" width="48">
    <g>
        <path id="XMLID_1774_"
              d="m476.978 64.104h-441.956c-19.311 0-35.022 15.711-35.022 35.021v295.389c0 19.071 15.326 34.621 34.308 35.003v3.405c0 8.269 6.704 14.973 14.973 14.973s14.973-6.704 14.973-14.973v-3.387h383.492v3.387c0 8.269 6.704 14.973 14.973 14.973s14.973-6.704 14.973-14.973v-3.405c18.982-.382 34.308-15.931 34.308-35.003v-295.389c0-19.31-15.711-35.021-35.022-35.021zm-173.9 335.486h-268.056c-2.799 0-5.076-2.277-5.076-5.076v-295.389c0-2.799 2.277-5.076 5.076-5.076h268.056zm178.976-5.076c0 2.799-2.277 5.076-5.077 5.076h-143.953v-305.54h143.954c2.8 0 5.077 2.277 5.077 5.076v295.388z"></path>
        <path id="XMLID_1773_"
              d="m437.029 126.401h-61.276c-8.269 0-14.973 6.704-14.973 14.973v61.276c0 8.269 6.704 14.973 14.973 14.973h61.276c8.269 0 14.973-6.704 14.973-14.973v-61.276c0-8.269-6.704-14.973-14.973-14.973zm-14.973 61.276h-31.331v-31.331h31.331z"></path>
        <path id="XMLID_1772_"
              d="m437.029 334.74h-61.276c-8.269 0-14.973 6.704-14.973 14.973s6.704 14.973 14.973 14.973h61.276c8.269 0 14.973-6.704 14.973-14.973s-6.704-14.973-14.973-14.973z"></path>
        <path id="XMLID_1771_"
              d="m256 311.579c8.269 0 14.973-6.704 14.973-14.973v-98.552c0-8.269-6.704-14.973-14.973-14.973s-14.973 6.704-14.973 14.973v98.552c0 8.27 6.703 14.973 14.973 14.973z"></path>
        <circle id="XMLID_1770_" cx="377.75" cy="252.302" r="14.973"></circle>
        <circle id="XMLID_1769_" cx="435.03" cy="252.302" r="14.973"></circle>
        <circle id="XMLID_1768_" cx="377.75" cy="299.265" r="14.973"></circle>
        <circle id="XMLID_1666_" cx="435.03" cy="299.265" r="14.973"></circle>
    </g>
</svg>
