<svg xmlns="http://www.w3.org/2000/svg" xmlns:xlink="http://www.w3.org/1999/xlink" version="1.1" id="Capa_1" x="0px" y="0px" viewBox="0 0 512 512" style="enable-background:new 0 0 512 512;" xml:space="preserve" width="48" height="48">
<g>
	<g>
		<path d="M406,420c58.448,0,106-47.103,106-105c0-34.303-17.079-66.251-44.718-85.703C476.863,214.769,482,197.787,482,180    c0-38.56-25.228-72.615-61.477-85.04C415.454,41.753,370.512,0,316,0c-21.607,0-42.493,6.643-60.019,18.867    C238.966,6.981,218.283,0,196,0C140.962,0,95.586,41.768,90.479,94.984C54.81,107.371,30,141.393,30,180    c0,17.703,5.092,34.607,14.586,49.089c-4.887,3.452-9.515,7.347-13.833,11.664l0.16,0.16C11.51,260.288,0,286.848,0,315    c0,57.897,47.103,105,105,105h46v62H90v30h362v-30h-61v-62H406z M105,390c-41.355,0-75-33.645-75-75c0-41.612,34.591-75,75-75    c20.378,0,40.072,8.007,54.033,21.967l21.213-21.214C160.701,221.209,133.275,210,105,210c-11.524,0-22.764,1.848-33.385,5.396    C64.078,205.172,60,192.903,60,180c0-22.72,12.893-43.046,32.265-53.18c4.147,19.722,13.905,37.842,28.489,52.426l21.213-21.214    c-23.196-23.196-21.463-49.741-21.963-53.797C120.421,63.23,154.352,30,196,30c36.23,0,66.528,25.83,73.484,60.037    C246.013,90.423,224,99.721,207.36,116.36l21.213,21.213C239.906,126.241,254.974,120,271,120l11.895,1.202    C310.769,126.802,331,151.53,331,180c0,32.444-26.24,60-60,60v30c19.987,0,38.968-6.491,54.573-18.442    C347.353,265.15,361,289.139,361,315c0,41.355-33.645,75-75,75C275.259,390,114.958,390,105,390z M211,482h-30v-62h30V482z     M301,482h-60v-62c18.228,0,42.154,0,60,0V482z M361,482h-30v-62h30V482z M359.404,390C378.887,370.927,391,344.354,391,315    c0-34.303-17.079-66.251-44.718-85.703C355.863,214.769,361,197.787,361,180c0-38.605-24.81-72.626-60.474-85.014    c-1.959-20.605-9.902-39.492-22.062-54.905C289.791,33.527,302.703,30,316,30c41.098,0,74.581,33.23,74.996,74.232    c-0.063,0.508-0.129,1.191-0.144,1.978l-0.239,12.525l12.281,2.467C431.349,126.919,452,151.647,452,180c0,33.194-26.802,60-61,60    v30c20.194,0,39.846-6.638,55.528-18.47C468.334,265.117,482,289.121,482,315c0,41.355-34.094,75-76,75H359.404z" fill="#000000"></path>
	</g>
</g>
</svg>
